<svg id="Слой_1" xmlns="http://www.w3.org/2000/svg" viewBox="0 0 356 60"><style>.st0{fill:#999}.st1{fill:#09c}</style><path id="_x36_qp1b" class="st0" d="M93.4.6L56.1 42.8l-19-22.1H22.9L56.4 59 100 8.7 93.4.6z"/><path id="_x36_qp1c" class="st1" d="M41.9 58.9h14.4L22.7 20.7H61l8.9-10h-70l42 48.2z"/><path id="_x36_qp1d" class="st0" d="M111.3 34.3h-2l-3.2-14.6h2.4l1.8 10.2 1.8-10.2h2.4l-3.2 14.6z"/><path id="_x36_qp1e" class="st0" d="M119.4 34.3h2.4V19.7h-2.4v14.6z"/><path id="_x36_qp1f" class="st0" d="M134.1 31.3c-.1 1.9-1.7 3.5-3.6 3.4-1.7 0-3.8-.8-3.8-3.5v-8.1c0-1.9 1.5-3.4 3.7-3.4 2.1 0 3.7 1.5 3.7 3.5v.8h-2.3v-.7c0-.8-.5-1.5-1.4-1.5-1.1 0-1.4.7-1.4 1.7V31c0 .8.3 1.5 1.4 1.5.6 0 1.4-.3 1.4-1.5v-.7h2.3v1z"/><path id="_x36_qp1g" class="st0" d="M140.6 21.8H138v-2h7.5v2h-2.6v12.8h-2.3V21.8z"/><path id="_x36_qp1h" class="st0" d="M149.5 23.3c0-2.4 2-3.6 3.8-3.6s3.8 1.2 3.8 3.6v7.8c0 2.4-2 3.6-3.8 3.6-1.8 0-3.8-1.2-3.8-3.6v-7.8zm2.2 7.8c0 1 .7 1.5 1.5 1.5s1.5-.5 1.5-1.5v-7.8c0-1-.7-1.5-1.5-1.5s-1.5.5-1.5 1.5v7.8z"/><path id="_x36_qp1i" class="st0" d="M162.2 19.9h3.7c2.7 0 4 1.5 4 4.3 0 1.7-.5 3-2 3.7l2.5 6.7H168l-2.1-6.3h-1.4v6.3h-2.3V19.9zm2.3 6.6h1.3c1.6 0 1.8-.8 1.8-2.3 0-1.5-.3-2.3-2-2.3h-1.2v4.6z"/><path id="_x36_qp1k" class="st0" d="M174.9 34.6h2.3V19.9h-2.3v14.7z"/><path id="_x36_qp1l" class="st0" d="M185 19.9h1.9l3.5 14.8h-2.3l-.7-3.2h-3.1l-.7 3.2h-2.3l3.7-14.8zm.9 4.2l-1.1 5.3h2.3l-1.2-5.3z"/><path id="_x36_qp1m" class="st0" d="M194.6 19.9h2.2l3.4 8.9v-8.9h2.3v14.8h-2.1l-3.5-8.9v8.9h-2.3V19.9z"/><path id="_x36_qp1n" class="st0" d="M221.7 31.3c-.1 1.9-1.7 3.5-3.6 3.4-1.7 0-3.8-.8-3.8-3.5v-8.1c0-1.9 1.5-3.4 3.7-3.4 2.1 0 3.7 1.5 3.7 3.5v.8h-2.3v-.7c0-.8-.5-1.5-1.4-1.5-1.2 0-1.4.7-1.4 1.7V31c0 .8.3 1.5 1.4 1.5.6 0 1.4-.3 1.4-1.5v-.7h2.3v1z"/><path id="_x36_qp1o" class="st0" d="M234 31.3c0 1.9-1.7 3.5-3.7 3.5s-3.7-1.5-3.7-3.4V19.9h2.3v11.2c0 1 .6 1.5 1.4 1.5.8 0 1.4-.5 1.4-1.5V19.9h2.3v11.4z"/><path id="_x36_qp1p" class="st0" d="M239.3 19.9h3.7c2.7 0 4 1.5 4 4.3 0 1.7-.5 3-2 3.7l2.5 6.7H245l-2.1-6.3h-1.4v6.3h-2.3l.1-14.7zm2.3 6.6h1.3c1.6 0 1.8-.8 1.8-2.3 0-1.5-.3-2.3-1.9-2.3h-1.2v4.6z"/><path id="_x36_qp1q" class="st0" d="M251.9 19.9h3.7c2.7 0 4 1.5 4 4.3 0 1.7-.5 3-2 3.7l2.5 6.7h-2.4l-2.1-6.3h-1.4v6.3h-2.3V19.9zm2.3 6.6h1.3c1.6 0 1.8-.8 1.8-2.3 0-1.5-.3-2.3-1.9-2.3h-1.2v4.6z"/><path id="_x36_qp1r" class="st0" d="M264.6 34.6h2.3V19.9h-2.3v14.7z"/><path id="_x36_qp1s" class="st0" d="M279.4 31.3c-.1 1.9-1.7 3.5-3.6 3.4-1.7 0-3.8-.8-3.8-3.5v-8.1c0-1.9 1.5-3.4 3.7-3.4 2.1 0 3.7 1.5 3.7 3.5v.8h-2.3v-.7c0-.8-.5-1.5-1.4-1.5-1.2 0-1.4.7-1.4 1.7V31c0 .8.4 1.5 1.4 1.5.6 0 1.4-.3 1.4-1.5v-.7h2.3v1z"/><path id="_x36_qp1t" class="st0" d="M291.7 31.3c0 1.9-1.7 3.5-3.7 3.5s-3.7-1.5-3.7-3.4V19.9h2.3v11.2c0 1 .6 1.5 1.4 1.5.8 0 1.4-.5 1.4-1.5V19.9h2.3v11.4z"/><path id="_x36_qp1u" class="st0" d="M296.9 19.9h2.3v12.7h4.5v2.1h-6.8V19.9z"/><path id="_x36_qp1v" class="st0" d="M315.7 31.3c0 1.9-1.7 3.5-3.7 3.5s-3.7-1.5-3.7-3.4V19.9h2.3v11.2c0 1 .6 1.5 1.4 1.5.8 0 1.4-.5 1.4-1.5V19.9h2.3v11.4z"/><path id="_x36_qp1w" class="st0" d="M320.9 19.9h2.2l2.9 7.8 2.9-7.8h2.2v14.8h-2.3v-9l-2.3 6.3h-1.1l-2.2-6.3v9h-2.3V19.9z"/><path id="_x36_qp1x" class="st0" d="M85.5 44.5h1.9L91 59.3h-2.3l-.7-3.2h-3.1l-.7 3.2H82l3.5-14.8zm1 4.3l-1.1 5.3h2.3l-1.2-5.3z"/><path id="_x36_qp1y" class="st0" d="M95.1 44.5h2.2l3.4 8.9v-8.9h2.3v14.8h-2.1l-3.5-8.9v8.9h-2.3V44.5z"/><path id="_x36_qp1z" class="st0" d="M108.2 44.5h3.4c2.6 0 4 1.4 4 3.8v6.9c0 2.7-1.5 4.1-4.2 4.1h-3.2V44.5zm2.3 12.8h1c1.3 0 1.8-.6 1.8-1.8v-7.1c0-1.2-.4-1.8-1.8-1.8h-1v10.7z"/><path id="_x36_qp1A" class="st0" d="M130.2 44.5h1.9l3.5 14.8h-2.3l-.7-3.2h-3.1l-.7 3.2h-2.3l3.7-14.8zm.9 4.3l-1.2 5.3h2.3l-1.1-5.3z"/><path id="_x36_qp1B" class="st0" d="M147.2 48.8h-2.3v-.5c0-1-.4-1.8-1.6-1.8-1.3 0-1.5.9-1.5 1.9 0 1.2.1 1.5 1.3 2l1.7.6c2 .7 2.4 1.9 2.4 4 0 2.5-1 4.3-3.9 4.3-2.2 0-3.9-1.5-3.9-3.5V55h2.3v.7c0 .8.4 1.5 1.6 1.5 1.5 0 1.7-.8 1.7-2.2 0-1.6-.2-1.8-1.3-2.2l-1.6-.6c-2-.7-2.5-1.9-2.5-3.8 0-2.2 1.3-4 3.9-4 2.3 0 3.8 1.7 3.8 3.3l-.1 1.1z"/><path id="_x36_qp1C" class="st0" d="M159.4 48.8h-2.3v-.5c0-1-.5-1.8-1.6-1.8-1.3 0-1.5.9-1.5 1.9 0 1.2.1 1.5 1.3 2l1.7.6c2 .7 2.4 1.9 2.4 4 0 2.5-1 4.3-3.9 4.3-2.2 0-3.9-1.5-3.9-3.5V55h2.3v.7c0 .8.5 1.5 1.6 1.5 1.5 0 1.7-.8 1.7-2.2 0-1.6-.2-1.8-1.3-2.2l-1.6-.6c-2-.7-2.5-1.9-2.5-3.8 0-2.2 1.3-4 3.9-4 2.3 0 3.8 1.7 3.8 3.3l-.1 1.1z"/><path id="_x36_qp1D" class="st0" d="M164.2 44.5h6.8v2h-4.5v4.3h3.9v2h-3.9v4.3h4.5v2.1h-6.8V44.5z"/><path id="_x36_qp1E" class="st0" d="M182.9 48.8h-2.3v-.5c0-1-.4-1.8-1.6-1.8-1.3 0-1.5.9-1.5 1.9 0 1.2.1 1.5 1.3 2l1.7.6c2 .7 2.4 1.9 2.4 4 0 2.5-1 4.3-3.9 4.3-2.2 0-3.9-1.5-3.9-3.5V55h2.3v.7c0 .8.4 1.5 1.6 1.5 1.5 0 1.7-.8 1.7-2.2 0-1.6-.2-1.8-1.3-2.2l-1.6-.6c-2-.7-2.5-1.9-2.5-3.8 0-2.2 1.3-4 3.9-4 2.3 0 3.8 1.7 3.8 3.3l-.1 1.1z"/><path id="_x36_qp1F" class="st0" d="M195 48.8h-2.3v-.5c0-1-.4-1.8-1.6-1.8-1.3 0-1.5.9-1.5 1.9 0 1.2.1 1.5 1.3 2l1.7.6c2 .7 2.4 1.9 2.4 4 0 2.5-1 4.3-3.9 4.3-2.2 0-3.9-1.5-3.9-3.5V55h2.3v.7c0 .8.4 1.5 1.6 1.5 1.5 0 1.7-.8 1.7-2.2 0-1.6-.2-1.8-1.3-2.2l-1.6-.6c-2-.7-2.5-1.9-2.5-3.8 0-2.2 1.3-4 3.9-4 2.3 0 3.8 1.7 3.8 3.3l-.1 1.1z"/><path id="_x36_qp1G" class="st0" d="M199.8 44.5h2.2l2.9 7.8 2.9-7.8h2.2v14.8h-2.3v-9l-2.3 6.3h-1.1l-2.2-6.3v9h-2.3V44.5z"/><path id="_x36_qp1H" class="st0" d="M215.3 44.5h6.8v2h-4.5v4.3h3.9v2h-3.9v4.3h4.5v2.1h-6.8V44.5z"/><path id="_x36_qp1I" class="st0" d="M226.6 44.5h2.2l3.4 8.9v-8.9h2.3v14.8h-2.1l-3.5-8.9v8.9h-2.3V44.5z"/><path id="_x36_qp1J" class="st0" d="M241.2 46.5h-2.6v-2h7.5v2h-2.6v12.8h-2.3V46.5z"/><path id="_x36_qp1K" class="st0" d="M259.6 44.5h1.9l3.5 14.8h-2.3l-.7-3.2h-3l-.7 3.2H256l3.6-14.8zm.9 4.3l-1.1 5.3h2.3l-1.2-5.3z"/><path id="_x36_qp1L" class="st0" d="M276.6 56c0 1.9-1.7 3.4-3.7 3.4s-3.7-1.5-3.7-3.4V44.5h2.3v11.2c0 1 .6 1.5 1.4 1.5.8 0 1.4-.5 1.4-1.5V44.5h2.3V56z"/><path id="_x36_qp1M" class="st0" d="M283.3 46.5h-2.6v-2h7.5v2h-2.6v12.8h-2.3V46.5z"/><path id="_x36_qp1N" class="st0" d="M292.3 44.5h2.3v6.3h2.8v-6.3h2.3v14.8h-2.3v-6.6h-2.8v6.6h-2.3V44.5z"/><path id="_x36_qp1O" class="st0" d="M304.8 48c0-2.4 2-3.6 3.8-3.6s3.8 1.2 3.8 3.6v7.8c0 2.4-2 3.6-3.8 3.6-1.8 0-3.8-1.2-3.8-3.6V48zm2.3 7.8c0 1 .7 1.5 1.5 1.5s1.5-.5 1.5-1.5V48c0-1-.7-1.5-1.5-1.5s-1.5.5-1.5 1.5v7.8z"/><path id="_x36_qp1P" class="st0" d="M317.5 44.5h3.7c2.7 0 4 1.5 4 4.3 0 1.7-.5 2.9-2 3.7l2.5 6.7h-2.4l-2.1-6.3h-1.4v6.3h-2.3V44.5zm2.3 6.6h1.3c1.6 0 1.8-.8 1.8-2.3 0-1.5-.3-2.3-1.9-2.3h-1.2v4.6z"/><path id="_x36_qp1Q" class="st0" d="M330.2 59.3h2.3V44.5h-2.3v14.8z"/><path id="_x36_qp1R" class="st0" d="M339.3 46.5h-2.6v-2h7.5v2h-2.6v12.8h-2.3V46.5z"/><path id="_x36_qp1S" class="st0" d="M350.4 53.1l-3.1-8.5h2.4l1.8 5.9 1.8-5.9h2.4l-3.1 8.5v6.3h-2.3l.1-6.3z"/></svg>